<svg xmlns="http://www.w3.org/2000/svg" xmlns:xlink="http://www.w3.org/1999/xlink" width="800" zoomAndPan="magnify" viewBox="0 0 600 599.999999" height="800" preserveAspectRatio="xMidYMid meet" version="1.0"><defs><clipPath id="8f2d8a221f"><path d="M 20 0 L 587 0 L 587 598.5 L 20 598.5 Z M 20 0 " clip-rule="nonzero"/></clipPath><clipPath id="5eab3bb2dd"><path d="M 346.316406 278.832031 L 91.808594 278.832031 C 81.9375 278.832031 74.796875 269.410156 77.460938 259.90625 L 147.335938 10.894531 C 149.140625 4.464844 155.003906 0.0195312 161.679688 0.0195312 L 416.191406 0.0195312 C 426.0625 0.0195312 433.203125 9.445312 430.535156 18.949219 L 360.664062 267.957031 C 358.859375 274.390625 352.996094 278.832031 346.316406 278.832031 Z M 181.011719 466.792969 L 216.988281 338.582031 C 219.652344 329.078125 212.511719 319.65625 202.640625 319.65625 L 71.808594 319.65625 C 65.132812 319.65625 59.269531 324.097656 57.464844 330.53125 L 21.488281 458.742188 C 18.820312 468.246094 25.964844 477.667969 35.832031 477.667969 L 166.664062 477.667969 C 173.34375 477.667969 179.207031 473.226562 181.011719 466.792969 Z M 247.214844 330.53125 L 177.34375 579.539062 C 174.675781 589.042969 181.820312 598.46875 191.691406 598.46875 L 446.199219 598.46875 C 452.878906 598.46875 458.742188 594.023438 460.546875 587.59375 L 530.417969 338.582031 C 533.085938 329.078125 525.941406 319.65625 516.070312 319.65625 L 261.5625 319.65625 C 254.882812 319.65625 249.019531 324.097656 247.214844 330.53125 Z M 426.871094 131.695312 L 390.894531 259.90625 C 388.226562 269.410156 395.371094 278.832031 405.238281 278.832031 L 536.070312 278.832031 C 542.75 278.832031 548.613281 274.390625 550.417969 267.957031 L 586.394531 139.746094 C 589.058594 130.242188 581.917969 120.820312 572.046875 120.820312 L 441.214844 120.820312 C 434.539062 120.820312 428.675781 125.261719 426.871094 131.695312 Z M 426.871094 131.695312 " clip-rule="nonzero"/></clipPath></defs><g clip-path="url(#8f2d8a221f)"><g clip-path="url(#5eab3bb2dd)"><path fill="#f95d2d" d="M 18.820312 0.0195312 L 18.820312 598.46875 L 588.769531 598.46875 L 588.769531 0.0195312 Z M 18.820312 0.0195312 " fill-opacity="1" fill-rule="nonzero"/></g></g></svg>