<svg xmlns="http://www.w3.org/2000/svg" xmlns:xlink="http://www.w3.org/1999/xlink" width="400" zoomAndPan="magnify" viewBox="0 0 300 149.999998" height="200" preserveAspectRatio="xMidYMid meet" version="1.0"><defs><g/><clipPath id="2c2532d2c1"><path d="M 56 47.507812 L 97.914062 47.507812 L 97.914062 91.757812 L 56 91.757812 Z M 56 47.507812 " clip-rule="nonzero"/></clipPath><clipPath id="2f323c72e7"><path d="M 80.210938 68.1875 L 61.332031 68.1875 C 60.601562 68.1875 60.070312 67.488281 60.269531 66.785156 L 65.449219 48.316406 C 65.585938 47.839844 66.019531 47.507812 66.515625 47.507812 L 85.390625 47.507812 C 86.125 47.507812 86.652344 48.207031 86.457031 48.914062 L 81.273438 67.382812 C 81.140625 67.859375 80.707031 68.1875 80.210938 68.1875 Z M 67.949219 82.128906 L 70.617188 72.621094 C 70.816406 71.914062 70.285156 71.214844 69.554688 71.214844 L 59.847656 71.214844 C 59.355469 71.214844 58.917969 71.546875 58.785156 72.023438 L 56.117188 81.53125 C 55.917969 82.238281 56.449219 82.9375 57.179688 82.9375 L 66.882812 82.9375 C 67.378906 82.9375 67.816406 82.605469 67.949219 82.128906 Z M 72.859375 72.023438 L 67.675781 90.492188 C 67.480469 91.199219 68.007812 91.894531 68.742188 91.894531 L 87.617188 91.894531 C 88.113281 91.894531 88.546875 91.566406 88.683594 91.089844 L 93.863281 72.621094 C 94.0625 71.914062 93.53125 71.214844 92.800781 71.214844 L 73.921875 71.214844 C 73.429688 71.214844 72.992188 71.546875 72.859375 72.023438 Z M 86.183594 57.273438 L 83.515625 66.785156 C 83.316406 67.488281 83.847656 68.1875 84.582031 68.1875 L 94.285156 68.1875 C 94.78125 68.1875 95.214844 67.859375 95.347656 67.382812 L 98.015625 57.871094 C 98.214844 57.167969 97.683594 56.46875 96.953125 56.46875 L 87.25 56.46875 C 86.753906 56.46875 86.316406 56.796875 86.183594 57.273438 Z M 86.183594 57.273438 " clip-rule="nonzero"/></clipPath><clipPath id="7447cc6869"><path d="M 6 0.519531 L 8 0.519531 L 8 44.679688 L 6 44.679688 Z M 6 0.519531 " clip-rule="nonzero"/></clipPath><clipPath id="1eee525400"><rect x="0" width="13" y="0" height="45"/></clipPath></defs><g clip-path="url(#2c2532d2c1)"><g clip-path="url(#2f323c72e7)"><path fill="#f95d2d" d="M 55.917969 47.507812 L 55.917969 91.757812 L 97.914062 91.757812 L 97.914062 47.507812 Z M 55.917969 47.507812 " fill-opacity="1" fill-rule="nonzero"/></g></g><g fill="#ffffff" fill-opacity="1"><g transform="translate(108.045575, 69.480812)"><g><path d="M 8.9375 -6.265625 L 8.171875 0 L 3.109375 0 L 0.171875 -21.0625 L 4.34375 -21.0625 L 5.578125 -10.328125 C 5.585938 -10.179688 5.601562 -9.96875 5.625 -9.6875 C 5.65625 -9.40625 5.675781 -9.164062 5.6875 -8.96875 C 5.6875 -8.84375 5.6875 -8.710938 5.6875 -8.578125 C 5.695312 -8.441406 5.703125 -8.304688 5.703125 -8.171875 C 5.703125 -8.035156 5.707031 -7.894531 5.71875 -7.75 C 5.71875 -7.601562 5.71875 -7.453125 5.71875 -7.296875 L 5.71875 -6.359375 L 5.703125 -2.65625 L 6.046875 -2.65625 C 6.046875 -2.894531 6.054688 -3.144531 6.078125 -3.40625 C 6.078125 -3.644531 6.078125 -3.894531 6.078125 -4.15625 C 6.078125 -4.6875 6.085938 -5.21875 6.109375 -5.75 C 6.128906 -6.28125 6.148438 -6.8125 6.171875 -7.34375 C 6.203125 -7.800781 6.238281 -8.316406 6.28125 -8.890625 C 6.332031 -9.460938 6.382812 -9.929688 6.4375 -10.296875 L 7.96875 -21.0625 L 11.171875 -21.0625 L 12.6875 -10.296875 C 12.75 -9.929688 12.800781 -9.460938 12.84375 -8.890625 C 12.894531 -8.316406 12.929688 -7.800781 12.953125 -7.34375 C 12.984375 -6.8125 13.007812 -6.28125 13.03125 -5.75 C 13.050781 -5.21875 13.0625 -4.6875 13.0625 -4.15625 C 13.0625 -3.894531 13.066406 -3.644531 13.078125 -3.40625 C 13.078125 -3.144531 13.078125 -2.894531 13.078125 -2.65625 L 13.4375 -2.65625 L 13.40625 -6.9375 L 13.40625 -7.453125 C 13.40625 -7.546875 13.410156 -7.648438 13.421875 -7.765625 C 13.421875 -7.878906 13.421875 -7.992188 13.421875 -8.109375 C 13.421875 -8.410156 13.425781 -8.664062 13.4375 -8.875 C 13.457031 -9.09375 13.476562 -9.347656 13.5 -9.640625 C 13.5 -9.765625 13.503906 -9.878906 13.515625 -9.984375 C 13.535156 -10.097656 13.550781 -10.210938 13.5625 -10.328125 L 14.796875 -21.0625 L 18.953125 -21.0625 L 16.015625 0 L 10.953125 0 L 10.21875 -6.265625 C 10.1875 -6.523438 10.15625 -6.832031 10.125 -7.1875 C 10.09375 -7.550781 10.054688 -7.914062 10.015625 -8.28125 C 9.984375 -8.65625 9.960938 -8.992188 9.953125 -9.296875 C 9.898438 -9.835938 9.863281 -10.367188 9.84375 -10.890625 C 9.820312 -11.410156 9.804688 -11.9375 9.796875 -12.46875 C 9.773438 -12.695312 9.765625 -12.941406 9.765625 -13.203125 C 9.753906 -13.441406 9.75 -13.679688 9.75 -13.921875 L 9.40625 -13.921875 C 9.40625 -13.492188 9.398438 -13.015625 9.390625 -12.484375 C 9.378906 -11.960938 9.359375 -11.429688 9.328125 -10.890625 C 9.296875 -10.359375 9.257812 -9.828125 9.21875 -9.296875 C 9.1875 -8.773438 9.144531 -8.25 9.09375 -7.71875 C 9.070312 -7.46875 9.050781 -7.21875 9.03125 -6.96875 C 8.988281 -6.726562 8.957031 -6.492188 8.9375 -6.265625 Z M 8.9375 -6.265625 "/></g></g></g><g fill="#ffffff" fill-opacity="1"><g transform="translate(129.741649, 69.480812)"><g><path d="M 15.140625 -7.75 L 15.140625 -6.46875 L 4.375 -6.46875 C 4.445312 -6.113281 4.5625 -5.785156 4.71875 -5.484375 C 4.875 -5.179688 5.050781 -4.921875 5.25 -4.703125 C 5.476562 -4.472656 5.71875 -4.28125 5.96875 -4.125 C 6.21875 -3.96875 6.519531 -3.847656 6.875 -3.765625 C 7.019531 -3.722656 7.175781 -3.6875 7.34375 -3.65625 C 7.519531 -3.632812 7.703125 -3.625 7.890625 -3.625 C 8.460938 -3.625 8.984375 -3.71875 9.453125 -3.90625 C 9.921875 -4.101562 10.304688 -4.367188 10.609375 -4.703125 C 10.671875 -4.785156 10.734375 -4.875 10.796875 -4.96875 C 10.859375 -5.0625 10.910156 -5.15625 10.953125 -5.25 L 15.015625 -5.25 C 14.847656 -4.519531 14.601562 -3.882812 14.28125 -3.34375 C 13.96875 -2.800781 13.613281 -2.347656 13.21875 -1.984375 C 12.769531 -1.535156 12.265625 -1.148438 11.703125 -0.828125 C 11.148438 -0.515625 10.539062 -0.269531 9.875 -0.09375 C 9.5625 -0.0078125 9.234375 0.0507812 8.890625 0.09375 C 8.546875 0.144531 8.195312 0.171875 7.84375 0.171875 C 6.9375 0.171875 6.113281 0.0390625 5.375 -0.21875 C 4.632812 -0.488281 3.976562 -0.847656 3.40625 -1.296875 C 2.132812 -2.265625 1.265625 -3.554688 0.796875 -5.171875 C 0.554688 -5.972656 0.4375 -6.832031 0.4375 -7.75 C 0.4375 -8.632812 0.5625 -9.484375 0.8125 -10.296875 C 1.0625 -11.117188 1.410156 -11.847656 1.859375 -12.484375 C 2.316406 -13.128906 2.851562 -13.679688 3.46875 -14.140625 C 4.09375 -14.597656 4.773438 -14.953125 5.515625 -15.203125 C 6.273438 -15.453125 7.0625 -15.578125 7.875 -15.578125 C 8.664062 -15.578125 9.4375 -15.441406 10.1875 -15.171875 C 10.945312 -14.910156 11.617188 -14.546875 12.203125 -14.078125 C 12.796875 -13.578125 13.3125 -13.007812 13.75 -12.375 C 14.195312 -11.738281 14.539062 -11.019531 14.78125 -10.21875 C 15.019531 -9.4375 15.140625 -8.613281 15.140625 -7.75 Z M 4.4375 -9.109375 L 11.21875 -9.109375 C 11.03125 -9.742188 10.710938 -10.285156 10.265625 -10.734375 C 9.828125 -11.171875 9.316406 -11.476562 8.734375 -11.65625 C 8.578125 -11.6875 8.421875 -11.710938 8.265625 -11.734375 C 8.109375 -11.753906 7.953125 -11.765625 7.796875 -11.765625 C 7.191406 -11.765625 6.609375 -11.609375 6.046875 -11.296875 C 5.847656 -11.179688 5.640625 -11.015625 5.421875 -10.796875 C 5.203125 -10.585938 5.003906 -10.320312 4.828125 -10 C 4.660156 -9.707031 4.53125 -9.410156 4.4375 -9.109375 Z M 4.4375 -9.109375 "/></g></g></g><g fill="#ffffff" fill-opacity="1"><g transform="translate(147.88098, 69.480812)"><g><path d="M 4.875 0 L 0.890625 0 L 0.890625 -21.25 L 4.875 -21.25 L 4.875 -14.125 C 5.050781 -14.320312 5.25 -14.507812 5.46875 -14.6875 C 5.695312 -14.863281 5.882812 -14.992188 6.03125 -15.078125 C 6.257812 -15.203125 6.460938 -15.296875 6.640625 -15.359375 C 6.816406 -15.421875 7.023438 -15.476562 7.265625 -15.53125 C 7.367188 -15.539062 7.472656 -15.550781 7.578125 -15.5625 C 7.691406 -15.570312 7.8125 -15.578125 7.9375 -15.578125 C 8.78125 -15.578125 9.503906 -15.34375 10.109375 -14.875 C 10.390625 -14.644531 10.640625 -14.347656 10.859375 -13.984375 C 11.078125 -13.617188 11.238281 -13.207031 11.34375 -12.75 C 11.394531 -12.507812 11.429688 -12.253906 11.453125 -11.984375 C 11.484375 -11.722656 11.5 -11.445312 11.5 -11.15625 L 11.5 -4.296875 C 11.5 -1.316406 10.382812 0.171875 8.15625 0.171875 C 7.851562 0.171875 7.539062 0.140625 7.21875 0.078125 C 6.894531 0.0234375 6.59375 -0.0703125 6.3125 -0.21875 C 6.007812 -0.351562 5.75 -0.503906 5.53125 -0.671875 C 5.3125 -0.835938 5.101562 -1.046875 4.90625 -1.296875 C 4.675781 -1.546875 4.5 -1.804688 4.375 -2.078125 L 4.15625 -1.890625 C 4.21875 -1.785156 4.289062 -1.660156 4.375 -1.515625 C 4.457031 -1.367188 4.523438 -1.226562 4.578125 -1.09375 C 4.617188 -0.988281 4.664062 -0.859375 4.71875 -0.703125 C 4.769531 -0.554688 4.804688 -0.421875 4.828125 -0.296875 C 4.859375 -0.179688 4.875 -0.0820312 4.875 0 Z M 4.6875 -10.15625 L 4.6875 -5.234375 C 4.6875 -4.847656 4.765625 -4.519531 4.921875 -4.25 C 4.972656 -4.15625 5.054688 -4.050781 5.171875 -3.9375 C 5.296875 -3.820312 5.441406 -3.742188 5.609375 -3.703125 C 5.753906 -3.648438 5.921875 -3.625 6.109375 -3.625 C 6.273438 -3.625 6.429688 -3.644531 6.578125 -3.6875 C 6.734375 -3.726562 6.878906 -3.800781 7.015625 -3.90625 C 7.117188 -4 7.207031 -4.101562 7.28125 -4.21875 C 7.363281 -4.332031 7.425781 -4.488281 7.46875 -4.6875 C 7.507812 -4.875 7.53125 -5.054688 7.53125 -5.234375 L 7.53125 -10.15625 C 7.53125 -10.550781 7.453125 -10.890625 7.296875 -11.171875 C 7.242188 -11.253906 7.15625 -11.347656 7.03125 -11.453125 C 6.90625 -11.566406 6.769531 -11.648438 6.625 -11.703125 C 6.46875 -11.742188 6.296875 -11.765625 6.109375 -11.765625 C 5.941406 -11.765625 5.78125 -11.742188 5.625 -11.703125 C 5.476562 -11.671875 5.34375 -11.597656 5.21875 -11.484375 C 5.101562 -11.390625 5.003906 -11.285156 4.921875 -11.171875 C 4.847656 -11.066406 4.796875 -10.910156 4.765625 -10.703125 C 4.710938 -10.515625 4.6875 -10.332031 4.6875 -10.15625 Z M 4.6875 -10.15625 "/></g></g></g><g fill="#ffffff" fill-opacity="1"><g transform="translate(162.65822, 69.480812)"><g><path d="M 1.59375 0 L 1.59375 -11.6875 L 0.171875 -11.6875 L 0.171875 -15.40625 L 2.90625 -15.40625 L 2.90625 -15.6875 C 2.664062 -15.78125 2.441406 -15.90625 2.234375 -16.0625 C 2.023438 -16.21875 1.851562 -16.378906 1.71875 -16.546875 C 1.394531 -16.910156 1.175781 -17.332031 1.0625 -17.8125 C 1.03125 -17.925781 1.003906 -18.046875 0.984375 -18.171875 C 0.972656 -18.296875 0.96875 -18.421875 0.96875 -18.546875 C 0.96875 -18.984375 1.035156 -19.335938 1.171875 -19.609375 C 1.304688 -19.878906 1.445312 -20.09375 1.59375 -20.25 C 1.789062 -20.476562 2.035156 -20.660156 2.328125 -20.796875 C 2.628906 -20.941406 2.972656 -21.054688 3.359375 -21.140625 C 3.546875 -21.171875 3.742188 -21.195312 3.953125 -21.21875 C 4.171875 -21.238281 4.398438 -21.25 4.640625 -21.25 L 8.671875 -21.25 L 8.5 -17.4375 L 5.9375 -17.4375 C 5.6875 -17.4375 5.484375 -17.382812 5.328125 -17.28125 C 5.234375 -17.207031 5.160156 -17.132812 5.109375 -17.0625 C 5.066406 -16.988281 5.03125 -16.894531 5 -16.78125 C 4.957031 -16.6875 4.9375 -16.566406 4.9375 -16.421875 C 4.9375 -16.160156 4.992188 -15.957031 5.109375 -15.8125 C 5.234375 -15.632812 5.394531 -15.515625 5.59375 -15.453125 C 5.675781 -15.421875 5.789062 -15.40625 5.9375 -15.40625 L 8.5 -15.40625 L 8.5 -11.6875 L 5.578125 -11.6875 L 5.578125 0 Z M 1.59375 0 "/></g></g></g><g fill="#ffffff" fill-opacity="1"><g transform="translate(174.250318, 69.480812)"><g><path d="M 4.875 0 L 0.890625 0 L 0.890625 -21.25 L 4.875 -21.25 Z M 4.875 0 "/></g></g></g><g fill="#ffffff" fill-opacity="1"><g transform="translate(182.568787, 69.480812)"><g><path d="M 8.234375 0.171875 C 7.335938 0.171875 6.5 0.0351562 5.71875 -0.234375 C 4.9375 -0.515625 4.238281 -0.890625 3.625 -1.359375 C 2.988281 -1.835938 2.429688 -2.394531 1.953125 -3.03125 C 1.472656 -3.664062 1.097656 -4.40625 0.828125 -5.25 C 0.566406 -6.03125 0.4375 -6.863281 0.4375 -7.75 C 0.4375 -8.601562 0.566406 -9.425781 0.828125 -10.21875 C 1.085938 -11.007812 1.453125 -11.726562 1.921875 -12.375 C 2.421875 -13.050781 3 -13.625 3.65625 -14.09375 C 4.3125 -14.5625 5.007812 -14.921875 5.75 -15.171875 C 6.144531 -15.296875 6.546875 -15.394531 6.953125 -15.46875 C 7.367188 -15.539062 7.796875 -15.578125 8.234375 -15.578125 C 9.066406 -15.578125 9.878906 -15.441406 10.671875 -15.171875 C 11.472656 -14.898438 12.191406 -14.535156 12.828125 -14.078125 C 13.453125 -13.597656 14.007812 -13.03125 14.5 -12.375 C 15 -11.726562 15.375 -11.007812 15.625 -10.21875 C 15.75 -9.820312 15.84375 -9.414062 15.90625 -9 C 15.976562 -8.59375 16.015625 -8.175781 16.015625 -7.75 C 16.015625 -7.039062 15.90625 -6.28125 15.6875 -5.46875 C 15.46875 -4.65625 15.078125 -3.851562 14.515625 -3.0625 C 14.046875 -2.40625 13.476562 -1.832031 12.8125 -1.34375 C 12.15625 -0.863281 11.445312 -0.492188 10.6875 -0.234375 C 10.300781 -0.0976562 9.898438 0 9.484375 0.0625 C 9.078125 0.132812 8.660156 0.171875 8.234375 0.171875 Z M 8.25 -3.625 C 8.632812 -3.625 9.023438 -3.6875 9.421875 -3.8125 C 9.816406 -3.945312 10.171875 -4.144531 10.484375 -4.40625 C 10.867188 -4.71875 11.171875 -5.050781 11.390625 -5.40625 C 11.609375 -5.769531 11.757812 -6.101562 11.84375 -6.40625 C 11.90625 -6.601562 11.953125 -6.8125 11.984375 -7.03125 C 12.015625 -7.25 12.03125 -7.472656 12.03125 -7.703125 C 12.03125 -8.160156 11.96875 -8.59375 11.84375 -9 C 11.71875 -9.40625 11.539062 -9.78125 11.3125 -10.125 C 11.113281 -10.40625 10.859375 -10.675781 10.546875 -10.9375 C 10.242188 -11.207031 9.875 -11.421875 9.4375 -11.578125 C 9.039062 -11.703125 8.644531 -11.765625 8.25 -11.765625 C 7.394531 -11.765625 6.644531 -11.515625 6 -11.015625 C 5.695312 -10.773438 5.421875 -10.476562 5.171875 -10.125 C 4.921875 -9.78125 4.738281 -9.410156 4.625 -9.015625 C 4.5625 -8.804688 4.507812 -8.585938 4.46875 -8.359375 C 4.4375 -8.140625 4.421875 -7.921875 4.421875 -7.703125 C 4.421875 -7.335938 4.472656 -6.945312 4.578125 -6.53125 C 4.691406 -6.113281 4.890625 -5.703125 5.171875 -5.296875 C 5.390625 -4.960938 5.648438 -4.671875 5.953125 -4.421875 C 6.265625 -4.171875 6.628906 -3.976562 7.046875 -3.84375 C 7.429688 -3.695312 7.832031 -3.625 8.25 -3.625 Z M 8.25 -3.625 "/></g></g></g><g fill="#ffffff" fill-opacity="1"><g transform="translate(201.592883, 69.480812)"><g><path d="M 0.890625 -15.40625 L 4.875 -15.40625 C 4.875 -15.269531 4.859375 -15.148438 4.828125 -15.046875 C 4.804688 -14.953125 4.765625 -14.820312 4.703125 -14.65625 C 4.648438 -14.476562 4.613281 -14.367188 4.59375 -14.328125 C 4.582031 -14.296875 4.5625 -14.257812 4.53125 -14.21875 C 4.507812 -14.175781 4.457031 -14.054688 4.375 -13.859375 C 4.3125 -13.734375 4.238281 -13.613281 4.15625 -13.5 L 4.375 -13.328125 C 4.5625 -13.609375 4.742188 -13.851562 4.921875 -14.0625 C 5.109375 -14.28125 5.34375 -14.488281 5.625 -14.6875 C 6.101562 -15.019531 6.671875 -15.234375 7.328125 -15.328125 C 7.640625 -15.378906 7.992188 -15.40625 8.390625 -15.40625 L 9.078125 -15.40625 L 8.90625 -11.59375 L 7.796875 -11.59375 C 6.859375 -11.59375 6.140625 -11.445312 5.640625 -11.15625 C 5.128906 -10.832031 4.875 -10.394531 4.875 -9.84375 L 4.875 0 L 0.890625 0 Z M 0.890625 -15.40625 "/></g></g></g><g fill="#ffffff" fill-opacity="1"><g transform="translate(213.503493, 69.480812)"><g><path d="M 0.4375 -4 C 0.4375 -4.613281 0.519531 -5.175781 0.6875 -5.6875 C 0.851562 -6.207031 1.113281 -6.671875 1.46875 -7.078125 C 1.820312 -7.492188 2.257812 -7.84375 2.78125 -8.125 C 3.3125 -8.414062 3.9375 -8.671875 4.65625 -8.890625 C 5.019531 -8.992188 5.40625 -9.082031 5.8125 -9.15625 C 6.226562 -9.238281 6.671875 -9.304688 7.140625 -9.359375 L 7.140625 -10.53125 C 7.140625 -10.644531 7.117188 -10.773438 7.078125 -10.921875 C 7.035156 -11.078125 6.984375 -11.195312 6.921875 -11.28125 C 6.847656 -11.375 6.769531 -11.457031 6.6875 -11.53125 C 6.601562 -11.613281 6.492188 -11.675781 6.359375 -11.71875 C 6.210938 -11.75 6.082031 -11.765625 5.96875 -11.765625 C 5.863281 -11.765625 5.734375 -11.75 5.578125 -11.71875 C 5.429688 -11.6875 5.316406 -11.632812 5.234375 -11.5625 C 5.046875 -11.414062 4.914062 -11.21875 4.84375 -10.96875 C 4.800781 -10.832031 4.78125 -10.707031 4.78125 -10.59375 L 4.78125 -10.171875 L 0.890625 -10.171875 L 0.890625 -11.21875 C 0.890625 -11.738281 0.960938 -12.234375 1.109375 -12.703125 C 1.253906 -13.179688 1.46875 -13.597656 1.75 -13.953125 C 2.332031 -14.648438 3.164062 -15.132812 4.25 -15.40625 C 4.507812 -15.457031 4.789062 -15.5 5.09375 -15.53125 C 5.394531 -15.5625 5.703125 -15.578125 6.015625 -15.578125 C 7.628906 -15.578125 8.890625 -15.191406 9.796875 -14.421875 C 10.679688 -13.660156 11.125 -12.59375 11.125 -11.21875 L 11.125 0 L 7.140625 0 C 7.140625 -0.101562 7.148438 -0.226562 7.171875 -0.375 C 7.191406 -0.53125 7.222656 -0.660156 7.265625 -0.765625 C 7.304688 -0.890625 7.351562 -1.015625 7.40625 -1.140625 C 7.457031 -1.265625 7.519531 -1.398438 7.59375 -1.546875 C 7.65625 -1.648438 7.738281 -1.765625 7.84375 -1.890625 L 7.625 -2.078125 C 7.4375 -1.742188 7.242188 -1.46875 7.046875 -1.25 C 6.859375 -1.03125 6.648438 -0.832031 6.421875 -0.65625 C 6.210938 -0.476562 5.976562 -0.328125 5.71875 -0.203125 C 5.46875 -0.078125 5.1875 0.015625 4.875 0.078125 C 4.726562 0.109375 4.582031 0.128906 4.4375 0.140625 C 4.289062 0.160156 4.140625 0.171875 3.984375 0.171875 C 3.597656 0.171875 3.21875 0.113281 2.84375 0 C 2.46875 -0.101562 2.113281 -0.289062 1.78125 -0.5625 C 1.488281 -0.789062 1.242188 -1.082031 1.046875 -1.4375 C 0.847656 -1.800781 0.703125 -2.191406 0.609375 -2.609375 C 0.546875 -2.816406 0.5 -3.035156 0.46875 -3.265625 C 0.445312 -3.503906 0.4375 -3.75 0.4375 -4 Z M 4.515625 -4.609375 C 4.515625 -4.429688 4.535156 -4.265625 4.578125 -4.109375 C 4.617188 -3.960938 4.671875 -3.851562 4.734375 -3.78125 C 4.878906 -3.550781 5.082031 -3.40625 5.34375 -3.34375 C 5.488281 -3.300781 5.625 -3.28125 5.75 -3.28125 C 6.15625 -3.28125 6.617188 -3.425781 7.140625 -3.71875 L 7.140625 -7 C 6.785156 -6.875 6.460938 -6.753906 6.171875 -6.640625 C 5.890625 -6.523438 5.644531 -6.382812 5.4375 -6.21875 C 5.25 -6.070312 5.078125 -5.914062 4.921875 -5.75 C 4.773438 -5.582031 4.675781 -5.398438 4.625 -5.203125 C 4.550781 -4.992188 4.515625 -4.796875 4.515625 -4.609375 Z M 4.515625 -4.609375 "/></g></g></g><g fill="#ffffff" fill-opacity="1"><g transform="translate(108.045575, 90.319334)"><g><path d="M 3.171875 0 L 3.171875 -15.390625 L 0.234375 -15.390625 L 0.234375 -18.875 L 9.828125 -18.875 L 9.828125 -15.390625 L 6.90625 -15.390625 L 6.90625 0 Z M 3.171875 0 "/></g></g></g><g fill="#ffffff" fill-opacity="1"><g transform="translate(119.295746, 90.319334)"><g><path d="M 13.5625 -6.953125 L 13.5625 -5.78125 L 3.921875 -5.78125 C 3.984375 -5.46875 4.082031 -5.175781 4.21875 -4.90625 C 4.363281 -4.632812 4.523438 -4.40625 4.703125 -4.21875 C 4.910156 -4.007812 5.125 -3.832031 5.34375 -3.6875 C 5.5625 -3.550781 5.832031 -3.445312 6.15625 -3.375 C 6.289062 -3.332031 6.429688 -3.300781 6.578125 -3.28125 C 6.734375 -3.257812 6.898438 -3.25 7.078125 -3.25 C 7.578125 -3.25 8.039062 -3.332031 8.46875 -3.5 C 8.894531 -3.675781 9.238281 -3.914062 9.5 -4.21875 C 9.5625 -4.289062 9.617188 -4.367188 9.671875 -4.453125 C 9.722656 -4.535156 9.769531 -4.617188 9.8125 -4.703125 L 13.453125 -4.703125 C 13.304688 -4.054688 13.085938 -3.488281 12.796875 -3 C 12.515625 -2.507812 12.195312 -2.101562 11.84375 -1.78125 C 11.445312 -1.375 10.992188 -1.023438 10.484375 -0.734375 C 9.984375 -0.453125 9.4375 -0.234375 8.84375 -0.078125 C 8.5625 -0.00390625 8.265625 0.0507812 7.953125 0.09375 C 7.648438 0.132812 7.34375 0.15625 7.03125 0.15625 C 6.207031 0.15625 5.46875 0.0351562 4.8125 -0.203125 C 4.15625 -0.441406 3.566406 -0.757812 3.046875 -1.15625 C 1.910156 -2.019531 1.132812 -3.175781 0.71875 -4.625 C 0.5 -5.34375 0.390625 -6.117188 0.390625 -6.953125 C 0.390625 -7.742188 0.5 -8.503906 0.71875 -9.234375 C 0.945312 -9.960938 1.265625 -10.613281 1.671875 -11.1875 C 2.078125 -11.757812 2.554688 -12.253906 3.109375 -12.671875 C 3.671875 -13.085938 4.285156 -13.40625 4.953125 -13.625 C 5.628906 -13.84375 6.332031 -13.953125 7.0625 -13.953125 C 7.769531 -13.953125 8.460938 -13.832031 9.140625 -13.59375 C 9.816406 -13.363281 10.410156 -13.035156 10.921875 -12.609375 C 11.460938 -12.160156 11.929688 -11.648438 12.328125 -11.078125 C 12.722656 -10.515625 13.03125 -9.875 13.25 -9.15625 C 13.457031 -8.457031 13.5625 -7.722656 13.5625 -6.953125 Z M 3.984375 -8.171875 L 10.0625 -8.171875 C 9.882812 -8.734375 9.597656 -9.210938 9.203125 -9.609375 C 8.804688 -10.003906 8.34375 -10.28125 7.8125 -10.4375 C 7.675781 -10.46875 7.539062 -10.492188 7.40625 -10.515625 C 7.269531 -10.535156 7.128906 -10.546875 6.984375 -10.546875 C 6.441406 -10.546875 5.921875 -10.40625 5.421875 -10.125 C 5.242188 -10.007812 5.054688 -9.859375 4.859375 -9.671875 C 4.660156 -9.484375 4.484375 -9.242188 4.328125 -8.953125 C 4.179688 -8.691406 4.066406 -8.429688 3.984375 -8.171875 Z M 3.984375 -8.171875 "/></g></g></g><g fill="#ffffff" fill-opacity="1"><g transform="translate(134.427649, 90.319334)"><g><path d="M 9.890625 -6.078125 L 13.5 -6.078125 C 13.476562 -5.328125 13.34375 -4.632812 13.09375 -4 C 12.851562 -3.363281 12.546875 -2.796875 12.171875 -2.296875 C 11.773438 -1.785156 11.296875 -1.34375 10.734375 -0.96875 C 10.179688 -0.59375 9.609375 -0.316406 9.015625 -0.140625 C 8.691406 -0.046875 8.363281 0.0234375 8.03125 0.078125 C 7.707031 0.128906 7.375 0.15625 7.03125 0.15625 C 5.570312 0.15625 4.253906 -0.289062 3.078125 -1.1875 C 2.535156 -1.601562 2.054688 -2.117188 1.640625 -2.734375 C 1.234375 -3.347656 0.929688 -4 0.734375 -4.6875 C 0.515625 -5.394531 0.40625 -6.160156 0.40625 -6.984375 C 0.40625 -7.796875 0.515625 -8.554688 0.734375 -9.265625 C 0.960938 -9.972656 1.28125 -10.613281 1.6875 -11.1875 C 2.0625 -11.75 2.523438 -12.238281 3.078125 -12.65625 C 3.628906 -13.070312 4.242188 -13.394531 4.921875 -13.625 C 5.597656 -13.84375 6.300781 -13.953125 7.03125 -13.953125 C 8.414062 -13.953125 9.648438 -13.582031 10.734375 -12.84375 C 11.835938 -12.09375 12.617188 -11.085938 13.078125 -9.828125 C 13.203125 -9.515625 13.296875 -9.179688 13.359375 -8.828125 C 13.429688 -8.484375 13.472656 -8.117188 13.484375 -7.734375 L 9.890625 -7.734375 C 9.867188 -8.046875 9.816406 -8.347656 9.734375 -8.640625 C 9.648438 -8.941406 9.519531 -9.210938 9.34375 -9.453125 C 8.988281 -9.929688 8.53125 -10.253906 7.96875 -10.421875 C 7.664062 -10.503906 7.359375 -10.546875 7.046875 -10.546875 C 6.691406 -10.546875 6.359375 -10.492188 6.046875 -10.390625 C 5.742188 -10.285156 5.457031 -10.117188 5.1875 -9.890625 C 4.925781 -9.679688 4.703125 -9.414062 4.515625 -9.09375 C 4.328125 -8.78125 4.195312 -8.457031 4.125 -8.125 C 4.082031 -7.925781 4.046875 -7.726562 4.015625 -7.53125 C 3.992188 -7.332031 3.984375 -7.125 3.984375 -6.90625 C 3.984375 -6.488281 4.023438 -6.085938 4.109375 -5.703125 C 4.203125 -5.316406 4.34375 -4.972656 4.53125 -4.671875 C 4.90625 -4.066406 5.40625 -3.648438 6.03125 -3.421875 C 6.332031 -3.304688 6.671875 -3.25 7.046875 -3.25 C 7.398438 -3.25 7.710938 -3.289062 7.984375 -3.375 C 8.265625 -3.457031 8.515625 -3.585938 8.734375 -3.765625 C 9.203125 -4.097656 9.535156 -4.554688 9.734375 -5.140625 C 9.773438 -5.273438 9.804688 -5.421875 9.828125 -5.578125 C 9.859375 -5.742188 9.878906 -5.910156 9.890625 -6.078125 Z M 9.890625 -6.078125 "/></g></g></g><g fill="#ffffff" fill-opacity="1"><g transform="translate(149.496176, 90.319334)"><g><path d="M 4.359375 -19.03125 L 4.359375 -13.796875 C 4.359375 -13.734375 4.347656 -13.648438 4.328125 -13.546875 C 4.316406 -13.453125 4.285156 -13.332031 4.234375 -13.1875 C 4.179688 -13.039062 4.140625 -12.921875 4.109375 -12.828125 C 4.078125 -12.734375 4.015625 -12.609375 3.921875 -12.453125 C 3.890625 -12.390625 3.859375 -12.328125 3.828125 -12.265625 C 3.796875 -12.210938 3.765625 -12.15625 3.734375 -12.09375 L 3.921875 -11.9375 C 4.117188 -12.238281 4.304688 -12.476562 4.484375 -12.65625 C 4.660156 -12.84375 4.863281 -13.023438 5.09375 -13.203125 C 5.289062 -13.367188 5.507812 -13.507812 5.75 -13.625 C 6 -13.738281 6.238281 -13.820312 6.46875 -13.875 C 6.582031 -13.894531 6.703125 -13.910156 6.828125 -13.921875 C 6.953125 -13.941406 7.078125 -13.953125 7.203125 -13.953125 C 7.515625 -13.953125 7.828125 -13.898438 8.140625 -13.796875 C 8.453125 -13.703125 8.722656 -13.554688 8.953125 -13.359375 C 9.421875 -12.929688 9.726562 -12.335938 9.875 -11.578125 C 9.90625 -11.390625 9.929688 -11.1875 9.953125 -10.96875 C 9.972656 -10.757812 9.984375 -10.539062 9.984375 -10.3125 L 9.984375 0 L 6.421875 0 L 6.421875 -9.671875 C 6.421875 -9.796875 6.410156 -9.894531 6.390625 -9.96875 C 6.367188 -10.039062 6.328125 -10.132812 6.265625 -10.25 C 6.222656 -10.3125 6.160156 -10.367188 6.078125 -10.421875 C 5.992188 -10.472656 5.921875 -10.503906 5.859375 -10.515625 C 5.742188 -10.535156 5.644531 -10.546875 5.5625 -10.546875 C 5.476562 -10.546875 5.398438 -10.535156 5.328125 -10.515625 C 5.253906 -10.503906 5.175781 -10.488281 5.09375 -10.46875 C 5 -10.445312 4.914062 -10.414062 4.84375 -10.375 C 4.78125 -10.34375 4.695312 -10.300781 4.59375 -10.25 C 4.550781 -10.226562 4.507812 -10.203125 4.46875 -10.171875 C 4.4375 -10.148438 4.398438 -10.125 4.359375 -10.09375 L 4.359375 0 L 0.796875 0 L 0.796875 -19.03125 Z M 4.359375 -19.03125 "/></g></g></g><g fill="#ffffff" fill-opacity="1"><g transform="translate(161.459314, 90.319334)"><g><path d="M 0.796875 -13.796875 L 4.359375 -13.796875 C 4.359375 -13.753906 4.347656 -13.664062 4.328125 -13.53125 C 4.304688 -13.40625 4.28125 -13.304688 4.25 -13.234375 C 4.207031 -13.109375 4.164062 -12.988281 4.125 -12.875 C 4.082031 -12.757812 4.019531 -12.625 3.9375 -12.46875 C 3.90625 -12.40625 3.875 -12.34375 3.84375 -12.28125 C 3.8125 -12.226562 3.773438 -12.164062 3.734375 -12.09375 L 3.921875 -11.9375 C 4.117188 -12.238281 4.304688 -12.476562 4.484375 -12.65625 C 4.660156 -12.84375 4.863281 -13.023438 5.09375 -13.203125 C 5.289062 -13.367188 5.507812 -13.507812 5.75 -13.625 C 6 -13.738281 6.238281 -13.820312 6.46875 -13.875 C 6.582031 -13.894531 6.703125 -13.910156 6.828125 -13.921875 C 6.953125 -13.941406 7.078125 -13.953125 7.203125 -13.953125 C 7.515625 -13.953125 7.828125 -13.898438 8.140625 -13.796875 C 8.453125 -13.703125 8.722656 -13.554688 8.953125 -13.359375 C 9.421875 -12.929688 9.726562 -12.335938 9.875 -11.578125 C 9.90625 -11.390625 9.929688 -11.1875 9.953125 -10.96875 C 9.972656 -10.757812 9.984375 -10.539062 9.984375 -10.3125 L 9.984375 0 L 6.421875 0 L 6.421875 -9.671875 C 6.421875 -9.796875 6.410156 -9.894531 6.390625 -9.96875 C 6.367188 -10.039062 6.328125 -10.132812 6.265625 -10.25 C 6.222656 -10.3125 6.160156 -10.367188 6.078125 -10.421875 C 5.992188 -10.472656 5.921875 -10.503906 5.859375 -10.515625 C 5.742188 -10.535156 5.644531 -10.546875 5.5625 -10.546875 C 5.476562 -10.546875 5.398438 -10.535156 5.328125 -10.515625 C 5.253906 -10.503906 5.175781 -10.488281 5.09375 -10.46875 C 5 -10.445312 4.914062 -10.414062 4.84375 -10.375 C 4.78125 -10.34375 4.695312 -10.300781 4.59375 -10.25 C 4.550781 -10.226562 4.507812 -10.203125 4.46875 -10.171875 C 4.4375 -10.148438 4.398438 -10.125 4.359375 -10.09375 L 4.359375 0 L 0.796875 0 Z M 0.796875 -13.796875 "/></g></g></g><g fill="#ffffff" fill-opacity="1"><g transform="translate(173.422452, 90.319334)"><g><path d="M 7.375 0.15625 C 6.570312 0.15625 5.820312 0.03125 5.125 -0.21875 C 4.425781 -0.46875 3.800781 -0.800781 3.25 -1.21875 C 2.675781 -1.644531 2.175781 -2.140625 1.75 -2.703125 C 1.320312 -3.273438 0.988281 -3.941406 0.75 -4.703125 C 0.507812 -5.398438 0.390625 -6.148438 0.390625 -6.953125 C 0.390625 -7.710938 0.503906 -8.445312 0.734375 -9.15625 C 0.972656 -9.863281 1.304688 -10.503906 1.734375 -11.078125 C 2.171875 -11.679688 2.679688 -12.195312 3.265625 -12.625 C 3.859375 -13.050781 4.488281 -13.375 5.15625 -13.59375 C 5.5 -13.707031 5.851562 -13.796875 6.21875 -13.859375 C 6.59375 -13.921875 6.976562 -13.953125 7.375 -13.953125 C 8.125 -13.953125 8.851562 -13.832031 9.5625 -13.59375 C 10.28125 -13.351562 10.925781 -13.023438 11.5 -12.609375 C 12.0625 -12.179688 12.5625 -11.675781 13 -11.09375 C 13.4375 -10.507812 13.769531 -9.863281 14 -9.15625 C 14.101562 -8.800781 14.1875 -8.4375 14.25 -8.0625 C 14.320312 -7.695312 14.359375 -7.328125 14.359375 -6.953125 C 14.359375 -6.316406 14.257812 -5.632812 14.0625 -4.90625 C 13.863281 -4.175781 13.507812 -3.457031 13 -2.75 C 12.582031 -2.15625 12.078125 -1.640625 11.484375 -1.203125 C 10.890625 -0.773438 10.253906 -0.441406 9.578125 -0.203125 C 9.234375 -0.0859375 8.875 0 8.5 0.0625 C 8.132812 0.125 7.757812 0.15625 7.375 0.15625 Z M 7.390625 -3.25 C 7.734375 -3.25 8.082031 -3.304688 8.4375 -3.421875 C 8.789062 -3.535156 9.109375 -3.710938 9.390625 -3.953125 C 9.734375 -4.222656 10.003906 -4.519531 10.203125 -4.84375 C 10.398438 -5.164062 10.535156 -5.460938 10.609375 -5.734375 C 10.660156 -5.921875 10.703125 -6.109375 10.734375 -6.296875 C 10.765625 -6.492188 10.78125 -6.695312 10.78125 -6.90625 C 10.78125 -7.3125 10.722656 -7.695312 10.609375 -8.0625 C 10.492188 -8.425781 10.335938 -8.765625 10.140625 -9.078125 C 9.953125 -9.328125 9.722656 -9.570312 9.453125 -9.8125 C 9.179688 -10.050781 8.847656 -10.238281 8.453125 -10.375 C 8.097656 -10.488281 7.742188 -10.546875 7.390625 -10.546875 C 6.628906 -10.546875 5.957031 -10.316406 5.375 -9.859375 C 5.101562 -9.648438 4.851562 -9.390625 4.625 -9.078125 C 4.40625 -8.765625 4.242188 -8.429688 4.140625 -8.078125 C 4.085938 -7.890625 4.046875 -7.695312 4.015625 -7.5 C 3.984375 -7.300781 3.96875 -7.101562 3.96875 -6.90625 C 3.96875 -6.570312 4.015625 -6.21875 4.109375 -5.84375 C 4.203125 -5.476562 4.375 -5.109375 4.625 -4.734375 C 4.832031 -4.441406 5.070312 -4.179688 5.34375 -3.953125 C 5.613281 -3.734375 5.9375 -3.5625 6.3125 -3.4375 C 6.65625 -3.3125 7.015625 -3.25 7.390625 -3.25 Z M 7.390625 -3.25 "/></g></g></g><g fill="#ffffff" fill-opacity="1"><g transform="translate(189.346539, 90.319334)"><g><path d="M 4.359375 0 L 0.796875 0 L 0.796875 -19.03125 L 4.359375 -19.03125 Z M 4.359375 0 "/></g></g></g><g fill="#ffffff" fill-opacity="1"><g transform="translate(195.685123, 90.319334)"><g><path d="M 7.375 0.15625 C 6.570312 0.15625 5.820312 0.03125 5.125 -0.21875 C 4.425781 -0.46875 3.800781 -0.800781 3.25 -1.21875 C 2.675781 -1.644531 2.175781 -2.140625 1.75 -2.703125 C 1.320312 -3.273438 0.988281 -3.941406 0.75 -4.703125 C 0.507812 -5.398438 0.390625 -6.148438 0.390625 -6.953125 C 0.390625 -7.710938 0.503906 -8.445312 0.734375 -9.15625 C 0.972656 -9.863281 1.304688 -10.503906 1.734375 -11.078125 C 2.171875 -11.679688 2.679688 -12.195312 3.265625 -12.625 C 3.859375 -13.050781 4.488281 -13.375 5.15625 -13.59375 C 5.5 -13.707031 5.851562 -13.796875 6.21875 -13.859375 C 6.59375 -13.921875 6.976562 -13.953125 7.375 -13.953125 C 8.125 -13.953125 8.851562 -13.832031 9.5625 -13.59375 C 10.28125 -13.351562 10.925781 -13.023438 11.5 -12.609375 C 12.0625 -12.179688 12.5625 -11.675781 13 -11.09375 C 13.4375 -10.507812 13.769531 -9.863281 14 -9.15625 C 14.101562 -8.800781 14.1875 -8.4375 14.25 -8.0625 C 14.320312 -7.695312 14.359375 -7.328125 14.359375 -6.953125 C 14.359375 -6.316406 14.257812 -5.632812 14.0625 -4.90625 C 13.863281 -4.175781 13.507812 -3.457031 13 -2.75 C 12.582031 -2.15625 12.078125 -1.640625 11.484375 -1.203125 C 10.890625 -0.773438 10.253906 -0.441406 9.578125 -0.203125 C 9.234375 -0.0859375 8.875 0 8.5 0.0625 C 8.132812 0.125 7.757812 0.15625 7.375 0.15625 Z M 7.390625 -3.25 C 7.734375 -3.25 8.082031 -3.304688 8.4375 -3.421875 C 8.789062 -3.535156 9.109375 -3.710938 9.390625 -3.953125 C 9.734375 -4.222656 10.003906 -4.519531 10.203125 -4.84375 C 10.398438 -5.164062 10.535156 -5.460938 10.609375 -5.734375 C 10.660156 -5.921875 10.703125 -6.109375 10.734375 -6.296875 C 10.765625 -6.492188 10.78125 -6.695312 10.78125 -6.90625 C 10.78125 -7.3125 10.722656 -7.695312 10.609375 -8.0625 C 10.492188 -8.425781 10.335938 -8.765625 10.140625 -9.078125 C 9.953125 -9.328125 9.722656 -9.570312 9.453125 -9.8125 C 9.179688 -10.050781 8.847656 -10.238281 8.453125 -10.375 C 8.097656 -10.488281 7.742188 -10.546875 7.390625 -10.546875 C 6.628906 -10.546875 5.957031 -10.316406 5.375 -9.859375 C 5.101562 -9.648438 4.851562 -9.390625 4.625 -9.078125 C 4.40625 -8.765625 4.242188 -8.429688 4.140625 -8.078125 C 4.085938 -7.890625 4.046875 -7.695312 4.015625 -7.5 C 3.984375 -7.300781 3.96875 -7.101562 3.96875 -6.90625 C 3.96875 -6.570312 4.015625 -6.21875 4.109375 -5.84375 C 4.203125 -5.476562 4.375 -5.109375 4.625 -4.734375 C 4.832031 -4.441406 5.070312 -4.179688 5.34375 -3.953125 C 5.613281 -3.734375 5.9375 -3.5625 6.3125 -3.4375 C 6.65625 -3.3125 7.015625 -3.25 7.390625 -3.25 Z M 7.390625 -3.25 "/></g></g></g><g fill="#ffffff" fill-opacity="1"><g transform="translate(211.60921, 90.319334)"><g><path d="M 1.65625 4.75 L 1.8125 1.34375 L 6.109375 1.34375 C 6.421875 1.34375 6.578125 1.1875 6.578125 0.875 L 6.578125 -1.625 C 6.429688 -1.46875 6.269531 -1.320312 6.09375 -1.1875 C 5.914062 -1.050781 5.710938 -0.929688 5.484375 -0.828125 C 5.234375 -0.703125 5.007812 -0.601562 4.8125 -0.53125 C 4.625 -0.46875 4.410156 -0.414062 4.171875 -0.375 C 3.941406 -0.332031 3.707031 -0.3125 3.46875 -0.3125 C 3.09375 -0.3125 2.757812 -0.363281 2.46875 -0.46875 C 2.175781 -0.582031 1.914062 -0.738281 1.6875 -0.9375 C 1.207031 -1.332031 0.898438 -1.953125 0.765625 -2.796875 C 0.722656 -3.003906 0.691406 -3.222656 0.671875 -3.453125 C 0.648438 -3.691406 0.640625 -3.941406 0.640625 -4.203125 L 0.640625 -10.140625 C 0.640625 -10.617188 0.691406 -11.054688 0.796875 -11.453125 C 0.898438 -11.859375 1.035156 -12.207031 1.203125 -12.5 C 1.367188 -12.789062 1.582031 -13.050781 1.84375 -13.28125 C 2.101562 -13.507812 2.398438 -13.675781 2.734375 -13.78125 C 2.890625 -13.832031 3.054688 -13.875 3.234375 -13.90625 C 3.410156 -13.9375 3.597656 -13.953125 3.796875 -13.953125 C 4.015625 -13.953125 4.242188 -13.925781 4.484375 -13.875 C 4.734375 -13.832031 4.96875 -13.757812 5.1875 -13.65625 C 5.40625 -13.539062 5.625 -13.394531 5.84375 -13.21875 C 6.0625 -13.039062 6.257812 -12.863281 6.4375 -12.6875 C 6.625 -12.488281 6.820312 -12.238281 7.03125 -11.9375 L 7.21875 -12.09375 C 7.164062 -12.195312 7.101562 -12.3125 7.03125 -12.4375 C 6.957031 -12.570312 6.894531 -12.695312 6.84375 -12.8125 C 6.800781 -12.90625 6.753906 -13.019531 6.703125 -13.15625 C 6.660156 -13.300781 6.628906 -13.425781 6.609375 -13.53125 C 6.585938 -13.632812 6.578125 -13.722656 6.578125 -13.796875 L 10.15625 -13.796875 L 10.15625 1.578125 C 10.15625 2.429688 9.984375 3.109375 9.640625 3.609375 C 9.304688 4.117188 8.800781 4.457031 8.125 4.625 C 7.78125 4.707031 7.398438 4.75 6.984375 4.75 Z M 6.734375 -5.078125 L 6.734375 -9.203125 C 6.734375 -9.523438 6.664062 -9.800781 6.53125 -10.03125 C 6.457031 -10.164062 6.363281 -10.265625 6.25 -10.328125 C 6.132812 -10.398438 6.03125 -10.453125 5.9375 -10.484375 C 5.789062 -10.523438 5.632812 -10.546875 5.46875 -10.546875 C 5.332031 -10.546875 5.191406 -10.523438 5.046875 -10.484375 C 4.898438 -10.453125 4.773438 -10.398438 4.671875 -10.328125 C 4.566406 -10.242188 4.476562 -10.148438 4.40625 -10.046875 C 4.34375 -9.941406 4.296875 -9.816406 4.265625 -9.671875 C 4.222656 -9.503906 4.203125 -9.347656 4.203125 -9.203125 L 4.203125 -5.078125 C 4.203125 -4.742188 4.269531 -4.460938 4.40625 -4.234375 C 4.476562 -4.109375 4.570312 -4.007812 4.6875 -3.9375 C 4.8125 -3.875 4.925781 -3.828125 5.03125 -3.796875 C 5.15625 -3.753906 5.300781 -3.734375 5.46875 -3.734375 C 5.601562 -3.734375 5.742188 -3.75 5.890625 -3.78125 C 6.046875 -3.820312 6.175781 -3.882812 6.28125 -3.96875 C 6.375 -4.039062 6.453125 -4.125 6.515625 -4.21875 C 6.585938 -4.320312 6.644531 -4.453125 6.6875 -4.609375 C 6.71875 -4.773438 6.734375 -4.929688 6.734375 -5.078125 Z M 6.734375 -5.078125 "/></g></g></g><g fill="#ffffff" fill-opacity="1"><g transform="translate(223.730791, 90.319334)"><g><path d="M 0.796875 0 L 0.796875 -13.796875 L 4.359375 -13.796875 L 4.359375 0 Z M 0.59375 -16.828125 C 0.59375 -17.285156 0.722656 -17.691406 0.984375 -18.046875 C 1.085938 -18.210938 1.222656 -18.359375 1.390625 -18.484375 C 1.566406 -18.617188 1.753906 -18.710938 1.953125 -18.765625 C 2.148438 -18.828125 2.359375 -18.859375 2.578125 -18.859375 C 2.796875 -18.859375 3.003906 -18.828125 3.203125 -18.765625 C 3.398438 -18.710938 3.585938 -18.617188 3.765625 -18.484375 C 4.109375 -18.234375 4.34375 -17.90625 4.46875 -17.5 C 4.53125 -17.28125 4.5625 -17.054688 4.5625 -16.828125 C 4.5625 -16.242188 4.378906 -15.753906 4.015625 -15.359375 C 3.640625 -14.953125 3.160156 -14.75 2.578125 -14.75 C 2.128906 -14.75 1.738281 -14.878906 1.40625 -15.140625 C 1.238281 -15.273438 1.097656 -15.421875 0.984375 -15.578125 C 0.867188 -15.742188 0.769531 -15.941406 0.6875 -16.171875 C 0.625 -16.378906 0.59375 -16.597656 0.59375 -16.828125 Z M 0.59375 -16.828125 "/></g></g></g><g fill="#ffffff" fill-opacity="1"><g transform="translate(230.069376, 90.319334)"><g><path d="M 13.5625 -6.953125 L 13.5625 -5.78125 L 3.921875 -5.78125 C 3.984375 -5.46875 4.082031 -5.175781 4.21875 -4.90625 C 4.363281 -4.632812 4.523438 -4.40625 4.703125 -4.21875 C 4.910156 -4.007812 5.125 -3.832031 5.34375 -3.6875 C 5.5625 -3.550781 5.832031 -3.445312 6.15625 -3.375 C 6.289062 -3.332031 6.429688 -3.300781 6.578125 -3.28125 C 6.734375 -3.257812 6.898438 -3.25 7.078125 -3.25 C 7.578125 -3.25 8.039062 -3.332031 8.46875 -3.5 C 8.894531 -3.675781 9.238281 -3.914062 9.5 -4.21875 C 9.5625 -4.289062 9.617188 -4.367188 9.671875 -4.453125 C 9.722656 -4.535156 9.769531 -4.617188 9.8125 -4.703125 L 13.453125 -4.703125 C 13.304688 -4.054688 13.085938 -3.488281 12.796875 -3 C 12.515625 -2.507812 12.195312 -2.101562 11.84375 -1.78125 C 11.445312 -1.375 10.992188 -1.023438 10.484375 -0.734375 C 9.984375 -0.453125 9.4375 -0.234375 8.84375 -0.078125 C 8.5625 -0.00390625 8.265625 0.0507812 7.953125 0.09375 C 7.648438 0.132812 7.34375 0.15625 7.03125 0.15625 C 6.207031 0.15625 5.46875 0.0351562 4.8125 -0.203125 C 4.15625 -0.441406 3.566406 -0.757812 3.046875 -1.15625 C 1.910156 -2.019531 1.132812 -3.175781 0.71875 -4.625 C 0.5 -5.34375 0.390625 -6.117188 0.390625 -6.953125 C 0.390625 -7.742188 0.5 -8.503906 0.71875 -9.234375 C 0.945312 -9.960938 1.265625 -10.613281 1.671875 -11.1875 C 2.078125 -11.757812 2.554688 -12.253906 3.109375 -12.671875 C 3.671875 -13.085938 4.285156 -13.40625 4.953125 -13.625 C 5.628906 -13.84375 6.332031 -13.953125 7.0625 -13.953125 C 7.769531 -13.953125 8.460938 -13.832031 9.140625 -13.59375 C 9.816406 -13.363281 10.410156 -13.035156 10.921875 -12.609375 C 11.460938 -12.160156 11.929688 -11.648438 12.328125 -11.078125 C 12.722656 -10.515625 13.03125 -9.875 13.25 -9.15625 C 13.457031 -8.457031 13.5625 -7.722656 13.5625 -6.953125 Z M 3.984375 -8.171875 L 10.0625 -8.171875 C 9.882812 -8.734375 9.597656 -9.210938 9.203125 -9.609375 C 8.804688 -10.003906 8.34375 -10.28125 7.8125 -10.4375 C 7.675781 -10.46875 7.539062 -10.492188 7.40625 -10.515625 C 7.269531 -10.535156 7.128906 -10.546875 6.984375 -10.546875 C 6.441406 -10.546875 5.921875 -10.40625 5.421875 -10.125 C 5.242188 -10.007812 5.054688 -9.859375 4.859375 -9.671875 C 4.660156 -9.484375 4.484375 -9.242188 4.328125 -8.953125 C 4.179688 -8.691406 4.066406 -8.429688 3.984375 -8.171875 Z M 3.984375 -8.171875 "/></g></g></g><g fill="#ffffff" fill-opacity="1"><g transform="translate(245.20128, 90.319334)"><g><path d="M 5.875 -9.671875 L 5.875 -10.28125 C 5.875 -10.769531 5.5625 -11.015625 4.9375 -11.015625 C 4.394531 -11.015625 4.125 -10.757812 4.125 -10.25 C 4.125 -10.195312 4.128906 -10.140625 4.140625 -10.078125 C 4.148438 -10.015625 4.1875 -9.941406 4.25 -9.859375 C 4.3125 -9.753906 4.410156 -9.628906 4.546875 -9.484375 C 4.679688 -9.347656 4.859375 -9.191406 5.078125 -9.015625 C 5.179688 -8.910156 5.300781 -8.800781 5.4375 -8.6875 C 5.582031 -8.570312 5.75 -8.453125 5.9375 -8.328125 C 6.507812 -7.867188 6.972656 -7.488281 7.328125 -7.1875 C 7.691406 -6.894531 8.039062 -6.578125 8.375 -6.234375 C 8.613281 -5.972656 8.816406 -5.695312 8.984375 -5.40625 C 9.160156 -5.113281 9.28125 -4.828125 9.34375 -4.546875 C 9.40625 -4.253906 9.4375 -3.945312 9.4375 -3.625 C 9.4375 -2.40625 9.046875 -1.46875 8.265625 -0.8125 C 7.492188 -0.164062 6.363281 0.15625 4.875 0.15625 C 3.707031 0.15625 2.757812 -0.046875 2.03125 -0.453125 C 1.601562 -0.691406 1.273438 -0.976562 1.046875 -1.3125 C 0.828125 -1.644531 0.675781 -1.960938 0.59375 -2.265625 C 0.457031 -2.691406 0.390625 -3.132812 0.390625 -3.59375 L 0.390625 -4.84375 L 3.484375 -4.84375 L 3.484375 -3.921875 C 3.484375 -3.628906 3.5625 -3.394531 3.71875 -3.21875 C 3.8125 -3.09375 3.894531 -3.003906 3.96875 -2.953125 C 4.050781 -2.910156 4.160156 -2.875 4.296875 -2.84375 C 4.359375 -2.820312 4.421875 -2.804688 4.484375 -2.796875 C 4.554688 -2.785156 4.628906 -2.78125 4.703125 -2.78125 C 4.835938 -2.78125 4.957031 -2.789062 5.0625 -2.8125 C 5.175781 -2.832031 5.300781 -2.878906 5.4375 -2.953125 C 5.625 -3.054688 5.753906 -3.203125 5.828125 -3.390625 C 5.859375 -3.515625 5.875 -3.625 5.875 -3.71875 C 5.875 -3.820312 5.851562 -3.925781 5.8125 -4.03125 C 5.78125 -4.132812 5.722656 -4.242188 5.640625 -4.359375 C 5.566406 -4.453125 5.4375 -4.582031 5.25 -4.75 C 5.070312 -4.925781 4.890625 -5.085938 4.703125 -5.234375 C 4.585938 -5.328125 4.460938 -5.425781 4.328125 -5.53125 C 4.191406 -5.632812 4.039062 -5.753906 3.875 -5.890625 C 3.375 -6.265625 2.925781 -6.617188 2.53125 -6.953125 C 2.132812 -7.296875 1.8125 -7.609375 1.5625 -7.890625 C 1.3125 -8.191406 1.113281 -8.472656 0.96875 -8.734375 C 0.820312 -9.003906 0.71875 -9.285156 0.65625 -9.578125 C 0.59375 -9.859375 0.5625 -10.15625 0.5625 -10.46875 C 0.5625 -12.789062 1.976562 -13.953125 4.8125 -13.953125 C 5.332031 -13.953125 5.820312 -13.90625 6.28125 -13.8125 C 6.75 -13.726562 7.140625 -13.601562 7.453125 -13.4375 C 8.117188 -13.0625 8.566406 -12.535156 8.796875 -11.859375 C 8.898438 -11.535156 8.953125 -11.148438 8.953125 -10.703125 L 8.953125 -9.671875 Z M 5.875 -9.671875 "/></g></g></g><g fill="#f95d2d" fill-opacity="1"><g transform="translate(256.217441, 90.319334)"><g><path d="M 2.625 0.15625 C 2.394531 0.15625 2.160156 0.117188 1.921875 0.046875 C 1.679688 -0.0234375 1.476562 -0.128906 1.3125 -0.265625 C 1.125 -0.398438 0.960938 -0.554688 0.828125 -0.734375 C 0.703125 -0.921875 0.597656 -1.128906 0.515625 -1.359375 C 0.429688 -1.597656 0.390625 -1.832031 0.390625 -2.0625 C 0.390625 -2.320312 0.429688 -2.5625 0.515625 -2.78125 C 0.609375 -3 0.71875 -3.195312 0.84375 -3.375 C 0.976562 -3.570312 1.132812 -3.734375 1.3125 -3.859375 C 1.488281 -3.984375 1.695312 -4.085938 1.9375 -4.171875 C 2.164062 -4.242188 2.394531 -4.28125 2.625 -4.28125 C 2.863281 -4.28125 3.101562 -4.238281 3.34375 -4.15625 C 3.59375 -4.082031 3.796875 -3.988281 3.953125 -3.875 C 4.117188 -3.726562 4.265625 -3.570312 4.390625 -3.40625 C 4.515625 -3.238281 4.625 -3.03125 4.71875 -2.78125 C 4.800781 -2.53125 4.84375 -2.289062 4.84375 -2.0625 C 4.84375 -1.851562 4.800781 -1.617188 4.71875 -1.359375 C 4.644531 -1.109375 4.546875 -0.90625 4.421875 -0.75 C 4.285156 -0.5625 4.125 -0.394531 3.9375 -0.25 C 3.75 -0.113281 3.546875 -0.015625 3.328125 0.046875 C 3.222656 0.078125 3.113281 0.101562 3 0.125 C 2.882812 0.144531 2.757812 0.15625 2.625 0.15625 Z M 2.625 0.15625 "/></g></g></g><g transform="matrix(1, 0, 0, 1, 96, 47)"><g clip-path="url(#1eee525400)"><g clip-path="url(#7447cc6869)"><g fill="#ffffff" fill-opacity="1"><g transform="translate(1.431135, 33.238163)"><g><path d="M 5.3125 10.9375 L 5.3125 -32.421875 L 5.953125 -32.421875 L 5.953125 10.9375 Z M 5.3125 10.9375 "/></g></g></g></g></g></g></svg>